<svg width="96" height="96" xmlns="http://www.w3.org/2000/svg" xmlns:xlink="http://www.w3.org/1999/xlink" xml:space="preserve" overflow="hidden"><g transform="translate(-492 -12)"><path d="M525 42.8C525 47.7706 520.971 51.8 516 51.8 511.029 51.8 507 47.7706 507 42.8 507 37.8294 511.029 33.8 516 33.8 520.971 33.8 525 37.8294 525 42.8Z"/><path d="M573 42.8C573 47.7706 568.971 51.8 564 51.8 559.029 51.8 555 47.7706 555 42.8 555 37.8294 559.029 33.8 564 33.8 568.971 33.8 573 37.8294 573 42.8Z"/><path d="M558 86.2 558 77.2C558 75.8 557.4 74.4 556.2 73.6 553.8 71.6 550.6 70.2 547.4 69.4 545.2 68.8 542.6 68.2 540 68.2 537.6 68.2 535 68.6 532.6 69.4 529.4 70.2 526.4 71.8 523.8 73.6 522.6 74.6 522 75.8 522 77.2L522 86.2 558 86.2Z"/><path d="M549 56.8C549 61.7706 544.971 65.8 540 65.8 535.029 65.8 531 61.7706 531 56.8 531 51.8294 535.029 47.8 540 47.8 544.971 47.8 549 51.8294 549 56.8Z"/><path d="M580.2 59.6C577.8 57.6 574.6 56.2 571.4 55.4 569.2 54.8 566.6 54.2 564 54.2 561.6 54.2 559 54.6 556.6 55.4 555.4 55.8 554.2 56.2 553 56.8L553 57C553 60.4 551.6 63.6 549.4 65.8 553.2 67 556.2 68.6 558.6 70.4 559.2 71 559.8 71.4 560.2 72.2L582 72.2 582 63.2C582 61.8 581.4 60.4 580.2 59.6Z"/><path d="M521.4 70.4 521.4 70.4C524.2 68.4 527.4 66.8 530.6 65.8 528.4 63.4 527 60.4 527 57 527 56.8 527 56.8 527 56.6 525.8 56.2 524.6 55.6 523.4 55.4 521.2 54.8 518.6 54.2 516 54.2 513.6 54.2 511 54.6 508.6 55.4 505.4 56.4 502.4 57.8 499.8 59.6 498.6 60.4 498 61.8 498 63.2L498 72.2 519.6 72.2C520.2 71.4 520.6 71 521.4 70.4Z"/></g></svg>